<?xml version="1.0" encoding="utf-8"?>
<!-- Generator: Adobe Illustrator 25.2.0, SVG Export Plug-In . SVG Version: 6.00 Build 0)  -->
<svg version="1.1" id="Calque_1" xmlns="http://www.w3.org/2000/svg" xmlns:xlink="http://www.w3.org/1999/xlink" x="0px" y="0px"
	 width="128px" height="128px" viewBox="0 0 128 128" style="enable-background:new 0 0 128 128;" xml:space="preserve">
<style type="text/css">
	.st0{fill:#FFFFFF;}
	.st1{fill:#0F4293;}
	.st2{fill:#FF6500;}
	.st3{fill:#D2E9FF;}
</style>
<g>
	<path class="st0" d="M67.5,54.7C67.5,54.7,67.4,54.7,67.5,54.7C67.4,54.7,67.4,54.7,67.5,54.7L67.5,54.7z"/>
	<path class="st0" d="M67.5,58.4c-2.6,0-4.7-2.1-4.7-4.7v-7.6h-6.7c-3.2,0-5.9-2.7-5.9-5.9v-21H7.1v88.4H69V58.2
		C68.5,58.3,68,58.4,67.5,58.4z"/>
</g>
<path class="st1" d="M68.9,67.3v32.6c0,1.4-1.1,2.5-2.5,2.5H11.3c-1.4,0-2.5-1.1-2.5-2.5v-78c0-1.4,1.1-2.5,2.5-2.5h31.9
	c0.6,0,1.2-0.5,1.2-1.2v-5.9c0-0.6-0.5-1.2-1.2-1.2H3.5C2.1,11,1,12.1,1,13.5v112c0,1.4,1.1,2.5,2.5,2.5h70.7c1.4,0,2.5-1.1,2.5-2.5
	v-62c0-1-1.1-1.6-2-1l-5.3,3.8C69.1,66.6,68.9,67,68.9,67.3z"/>
<path class="st2" d="M53.9,2.2v38c0,1.2,1,2.2,2.2,2.2h9.3c0.6,0,1.1,0.5,1.1,1.1v10.2c0,0.7,0.9,1.2,1.5,0.7l17.1-11.8
	c0.4-0.2,0.7-0.4,1.2-0.4h38.5c1.2,0,2.2-1,2.2-2.2V2.2c0-1.2-1-2.2-2.2-2.2H56C54.9,0,53.9,1,53.9,2.2z"/>
<rect x="16.1" y="26.6" class="st3" width="28.7" height="16.2"/>
<rect x="16.1" y="79" class="st3" width="28.7" height="16.2"/>
<rect x="26.8" y="50.3" class="st3" width="34.6" height="21.3"/>
<ellipse class="st0" cx="38.8" cy="115.5" rx="6.2" ry="6.2"/>
<ellipse class="st0" cx="73" cy="21.3" rx="6.1" ry="6.1"/>
<ellipse class="st0" cx="90.6" cy="21.3" rx="6.1" ry="6.1"/>
<ellipse class="st0" cx="108.1" cy="21.3" rx="6.1" ry="6.1"/>
</svg>
